<mxfile host="65bd71144e">
    <diagram id="HIP3nbAZw_EuaXWnEj3U" name="Page-1">
        <mxGraphModel dx="1086" dy="743" grid="1" gridSize="10" guides="1" tooltips="1" connect="1" arrows="1" fold="1" page="1" pageScale="1" pageWidth="850" pageHeight="1100" math="0" shadow="0">
            <root>
                <mxCell id="0"/>
                <mxCell id="1" parent="0"/>
                <mxCell id="7" value="http://ics2o.mths.ca" style="swimlane;whiteSpace=wrap;html=1;" parent="1" vertex="1">
                    <mxGeometry x="45" y="40" width="760" height="480" as="geometry"/>
                </mxCell>
                <mxCell id="8" value="Converting Fahrenheit to Celsius, with JS" style="rounded=0;whiteSpace=wrap;html=1;" parent="7" vertex="1">
                    <mxGeometry y="20" width="760" height="60" as="geometry"/>
                </mxCell>
                <mxCell id="9" value="Convert Fahrenheit to Celsius" style="text;strokeColor=none;fillColor=none;html=1;fontSize=24;fontStyle=1;verticalAlign=middle;align=center;" parent="7" vertex="1">
                    <mxGeometry x="130" y="80" width="100" height="40" as="geometry"/>
                </mxCell>
                <mxCell id="11" value="&lt;span style=&quot;font-weight: normal;&quot;&gt;Enter the Fahrenheit..&lt;/span&gt;" style="text;strokeColor=none;fillColor=none;html=1;fontSize=24;fontStyle=1;verticalAlign=middle;align=center;" parent="7" vertex="1">
                    <mxGeometry x="75" y="150" width="100" height="40" as="geometry"/>
                </mxCell>
                <mxCell id="12" value="Fahrenheit:" style="text;strokeColor=none;fillColor=none;html=1;fontSize=24;fontStyle=1;verticalAlign=middle;align=center;" parent="7" vertex="1">
                    <mxGeometry x="25" y="200" width="100" height="40" as="geometry"/>
                </mxCell>
                <mxCell id="14" value="" style="rounded=1;whiteSpace=wrap;html=1;" parent="7" vertex="1">
                    <mxGeometry x="145" y="200" width="175" height="40" as="geometry"/>
                </mxCell>
                <mxCell id="15" value="The temperature in Celsius is:" style="text;strokeColor=none;fillColor=none;html=1;fontSize=24;fontStyle=1;verticalAlign=middle;align=center;" parent="7" vertex="1">
                    <mxGeometry x="130" y="310" width="100" height="40" as="geometry"/>
                </mxCell>
                <mxCell id="16" value="&lt;i style=&quot;&quot;&gt;&lt;span style=&quot;font-weight: normal;&quot;&gt;Formula: (F&lt;/span&gt;&lt;span style=&quot;font-weight: 400;&quot;&gt;°&lt;/span&gt;&lt;span style=&quot;font-weight: normal;&quot;&gt;- 32) x 5/9 = C&lt;/span&gt;&lt;/i&gt;&lt;span style=&quot;font-weight: 400;&quot;&gt;&lt;i&gt;°&lt;/i&gt;&lt;/span&gt;" style="text;strokeColor=none;fillColor=none;html=1;fontSize=24;fontStyle=1;verticalAlign=middle;align=center;" parent="7" vertex="1">
                    <mxGeometry x="105" y="110" width="100" height="40" as="geometry"/>
                </mxCell>
                <mxCell id="17" value="Calculate" style="rounded=1;whiteSpace=wrap;html=1;" vertex="1" parent="7">
                    <mxGeometry x="10" y="260" width="120" height="30" as="geometry"/>
                </mxCell>
            </root>
        </mxGraphModel>
    </diagram>
</mxfile>